<mxfile host="65bd71144e">
    <diagram id="I-V-jPhW4gry7mbCwamY" name="Page-1">
        <mxGraphModel dx="1348" dy="939" grid="1" gridSize="10" guides="1" tooltips="1" connect="1" arrows="1" fold="1" page="1" pageScale="1" pageWidth="827" pageHeight="1169" math="0" shadow="0">
            <root>
                <mxCell id="0"/>
                <mxCell id="1" parent="0"/>
                <mxCell id="FiJ3dQUdY0tjjipgx3rU-7" style="edgeStyle=orthogonalEdgeStyle;rounded=0;orthogonalLoop=1;jettySize=auto;html=1;entryX=0;entryY=0.25;entryDx=0;entryDy=0;" parent="1" source="88Ix2T1ApFJFmfPS_afO-1" target="FiJ3dQUdY0tjjipgx3rU-2" edge="1">
                    <mxGeometry relative="1" as="geometry"/>
                </mxCell>
                <mxCell id="88Ix2T1ApFJFmfPS_afO-1" value="&lt;div&gt;&lt;b&gt;webui_joystick&lt;/b&gt;&lt;/div&gt;" style="rounded=1;whiteSpace=wrap;html=1;" parent="1" vertex="1">
                    <mxGeometry x="540" y="200" width="120" height="60" as="geometry"/>
                </mxCell>
                <mxCell id="FiJ3dQUdY0tjjipgx3rU-8" style="edgeStyle=orthogonalEdgeStyle;rounded=0;orthogonalLoop=1;jettySize=auto;html=1;entryX=0;entryY=0.75;entryDx=0;entryDy=0;" parent="1" source="FiJ3dQUdY0tjjipgx3rU-1" target="FiJ3dQUdY0tjjipgx3rU-2" edge="1">
                    <mxGeometry relative="1" as="geometry"/>
                </mxCell>
                <mxCell id="FiJ3dQUdY0tjjipgx3rU-1" value="f710_teleop_joy_node" style="rounded=1;whiteSpace=wrap;html=1;" parent="1" vertex="1">
                    <mxGeometry x="500" y="300" width="160" height="60" as="geometry"/>
                </mxCell>
                <mxCell id="FiJ3dQUdY0tjjipgx3rU-9" style="edgeStyle=orthogonalEdgeStyle;rounded=0;orthogonalLoop=1;jettySize=auto;html=1;" parent="1" source="FiJ3dQUdY0tjjipgx3rU-2" target="FiJ3dQUdY0tjjipgx3rU-3" edge="1">
                    <mxGeometry relative="1" as="geometry"/>
                </mxCell>
                <mxCell id="FiJ3dQUdY0tjjipgx3rU-28" style="edgeStyle=orthogonalEdgeStyle;rounded=0;orthogonalLoop=1;jettySize=auto;html=1;entryX=0;entryY=0.5;entryDx=0;entryDy=0;" parent="1" source="FiJ3dQUdY0tjjipgx3rU-2" target="FiJ3dQUdY0tjjipgx3rU-23" edge="1">
                    <mxGeometry relative="1" as="geometry">
                        <mxPoint x="1040" y="280" as="targetPoint"/>
                        <Array as="points">
                            <mxPoint x="1010" y="280"/>
                            <mxPoint x="1010" y="330"/>
                        </Array>
                    </mxGeometry>
                </mxCell>
                <mxCell id="FiJ3dQUdY0tjjipgx3rU-2" value="&lt;div&gt;panther_driver&lt;br&gt;&lt;/div&gt;" style="rounded=1;whiteSpace=wrap;html=1;" parent="1" vertex="1">
                    <mxGeometry x="780" y="250" width="120" height="60" as="geometry"/>
                </mxCell>
                <mxCell id="FiJ3dQUdY0tjjipgx3rU-15" style="edgeStyle=orthogonalEdgeStyle;rounded=0;orthogonalLoop=1;jettySize=auto;html=1;entryX=0.5;entryY=0;entryDx=0;entryDy=0;" parent="1" target="FiJ3dQUdY0tjjipgx3rU-12" edge="1">
                    <mxGeometry relative="1" as="geometry">
                        <mxPoint x="840" y="460" as="sourcePoint"/>
                    </mxGeometry>
                </mxCell>
                <mxCell id="FiJ3dQUdY0tjjipgx3rU-3" value="lights controller" style="rounded=1;whiteSpace=wrap;html=1;" parent="1" vertex="1">
                    <mxGeometry x="760" y="360" width="160" height="60" as="geometry"/>
                </mxCell>
                <mxCell id="FiJ3dQUdY0tjjipgx3rU-12" value="panther lights" style="rounded=1;whiteSpace=wrap;html=1;" parent="1" vertex="1">
                    <mxGeometry x="780" y="490" width="120" height="60" as="geometry"/>
                </mxCell>
                <mxCell id="FiJ3dQUdY0tjjipgx3rU-14" style="edgeStyle=orthogonalEdgeStyle;rounded=0;orthogonalLoop=1;jettySize=auto;html=1;entryX=0;entryY=0.5;entryDx=0;entryDy=0;" parent="1" source="FiJ3dQUdY0tjjipgx3rU-13" target="FiJ3dQUdY0tjjipgx3rU-1" edge="1">
                    <mxGeometry relative="1" as="geometry"/>
                </mxCell>
                <mxCell id="FiJ3dQUdY0tjjipgx3rU-13" value="&lt;div&gt;f710_joy_node&lt;/div&gt;" style="rounded=1;whiteSpace=wrap;html=1;" parent="1" vertex="1">
                    <mxGeometry x="300" y="300" width="160" height="60" as="geometry"/>
                </mxCell>
                <mxCell id="FiJ3dQUdY0tjjipgx3rU-16" value="?" style="text;html=1;align=center;verticalAlign=middle;resizable=0;points=[];autosize=1;strokeColor=none;fillColor=none;" parent="1" vertex="1">
                    <mxGeometry x="830" y="440" width="20" height="20" as="geometry"/>
                </mxCell>
                <mxCell id="FiJ3dQUdY0tjjipgx3rU-17" value="ROS" style="swimlane;" parent="1" vertex="1">
                    <mxGeometry x="270" y="150" width="700" height="420" as="geometry"/>
                </mxCell>
                <mxCell id="FiJ3dQUdY0tjjipgx3rU-21" value="Dwa node które defacto zawsze robią to samo" style="swimlane;horizontal=0;startSize=30;" parent="FiJ3dQUdY0tjjipgx3rU-17" vertex="1">
                    <mxGeometry x="450" y="195" width="210" height="210" as="geometry"/>
                </mxCell>
                <mxCell id="FiJ3dQUdY0tjjipgx3rU-5" value="imu_manager" style="rounded=1;whiteSpace=wrap;html=1;" parent="FiJ3dQUdY0tjjipgx3rU-17" vertex="1">
                    <mxGeometry x="250" y="300" width="120" height="60" as="geometry"/>
                </mxCell>
                <mxCell id="FiJ3dQUdY0tjjipgx3rU-10" style="edgeStyle=orthogonalEdgeStyle;rounded=0;orthogonalLoop=1;jettySize=auto;html=1;exitX=1;exitY=0.25;exitDx=0;exitDy=0;entryX=0;entryY=0.25;entryDx=0;entryDy=0;" parent="FiJ3dQUdY0tjjipgx3rU-17" source="FiJ3dQUdY0tjjipgx3rU-6" target="FiJ3dQUdY0tjjipgx3rU-5" edge="1">
                    <mxGeometry relative="1" as="geometry"/>
                </mxCell>
                <mxCell id="FiJ3dQUdY0tjjipgx3rU-6" value="ImuFilterNode" style="rounded=1;whiteSpace=wrap;html=1;" parent="FiJ3dQUdY0tjjipgx3rU-17" vertex="1">
                    <mxGeometry x="60" y="300" width="120" height="60" as="geometry"/>
                </mxCell>
                <mxCell id="FiJ3dQUdY0tjjipgx3rU-11" style="edgeStyle=orthogonalEdgeStyle;rounded=0;orthogonalLoop=1;jettySize=auto;html=1;exitX=0;exitY=0.75;exitDx=0;exitDy=0;entryX=1;entryY=0.75;entryDx=0;entryDy=0;" parent="FiJ3dQUdY0tjjipgx3rU-17" source="FiJ3dQUdY0tjjipgx3rU-5" target="FiJ3dQUdY0tjjipgx3rU-6" edge="1">
                    <mxGeometry relative="1" as="geometry"/>
                </mxCell>
                <mxCell id="FiJ3dQUdY0tjjipgx3rU-31" value="&lt;div&gt;Upstart:&lt;/div&gt;&lt;div&gt;&lt;div style=&quot;color: rgb(212 , 212 , 212) ; background-color: rgb(30 , 30 , 30) ; font-family: &amp;#34;droid sans mono&amp;#34; , &amp;#34;monospace&amp;#34; , monospace ; font-weight: normal ; font-size: 14px ; line-height: 19px&quot;&gt;&lt;div&gt;&lt;span style=&quot;color: #ce9178&quot;&gt;panther_driver.service&lt;/span&gt;&lt;/div&gt;&lt;/div&gt;&lt;/div&gt;" style="shape=parallelogram;perimeter=parallelogramPerimeter;whiteSpace=wrap;html=1;fixedSize=1;" parent="FiJ3dQUdY0tjjipgx3rU-17" vertex="1">
                    <mxGeometry x="-20" y="-20" width="240" height="60" as="geometry"/>
                </mxCell>
                <mxCell id="FiJ3dQUdY0tjjipgx3rU-64" style="edgeStyle=orthogonalEdgeStyle;rounded=0;orthogonalLoop=1;jettySize=auto;html=1;entryX=0.5;entryY=0;entryDx=0;entryDy=0;" parent="1" source="FiJ3dQUdY0tjjipgx3rU-23" target="FiJ3dQUdY0tjjipgx3rU-56" edge="1">
                    <mxGeometry relative="1" as="geometry"/>
                </mxCell>
                <mxCell id="FiJ3dQUdY0tjjipgx3rU-23" value="CAN" style="rhombus;whiteSpace=wrap;html=1;" parent="1" vertex="1">
                    <mxGeometry x="1061.5" y="290" width="80" height="80" as="geometry"/>
                </mxCell>
                <mxCell id="FiJ3dQUdY0tjjipgx3rU-55" style="edgeStyle=orthogonalEdgeStyle;rounded=0;orthogonalLoop=1;jettySize=auto;html=1;entryX=0;entryY=0.5;entryDx=0;entryDy=0;" parent="1" source="FiJ3dQUdY0tjjipgx3rU-25" target="FiJ3dQUdY0tjjipgx3rU-53" edge="1">
                    <mxGeometry relative="1" as="geometry"/>
                </mxCell>
                <mxCell id="FiJ3dQUdY0tjjipgx3rU-25" value="GPIO" style="rhombus;whiteSpace=wrap;html=1;" parent="1" vertex="1">
                    <mxGeometry x="658.5" y="660" width="80" height="80" as="geometry"/>
                </mxCell>
                <mxCell id="FiJ3dQUdY0tjjipgx3rU-63" style="edgeStyle=orthogonalEdgeStyle;rounded=0;orthogonalLoop=1;jettySize=auto;html=1;" parent="1" source="FiJ3dQUdY0tjjipgx3rU-34" target="FiJ3dQUdY0tjjipgx3rU-23" edge="1">
                    <mxGeometry relative="1" as="geometry"/>
                </mxCell>
                <mxCell id="FiJ3dQUdY0tjjipgx3rU-34" value="can_setup.sh" style="ellipse;whiteSpace=wrap;html=1;" parent="1" vertex="1">
                    <mxGeometry x="1026.5" y="190" width="150" height="80" as="geometry"/>
                </mxCell>
                <mxCell id="FiJ3dQUdY0tjjipgx3rU-33" value="&lt;div&gt;Upstart:&lt;/div&gt;&lt;div&gt;&lt;div style=&quot;color: rgb(212 , 212 , 212) ; background-color: rgb(30 , 30 , 30) ; font-family: &amp;#34;droid sans mono&amp;#34; , &amp;#34;monospace&amp;#34; , monospace ; font-weight: normal ; font-size: 14px ; line-height: 19px&quot;&gt;&lt;div&gt;&lt;span style=&quot;color: #ce9178&quot;&gt;can_setup.service&lt;/span&gt;&lt;/div&gt;&lt;/div&gt;&lt;/div&gt;" style="shape=parallelogram;perimeter=parallelogramPerimeter;whiteSpace=wrap;html=1;fixedSize=1;" parent="1" vertex="1">
                    <mxGeometry x="1007.25" y="150" width="188.5" height="60" as="geometry"/>
                </mxCell>
                <mxCell id="FiJ3dQUdY0tjjipgx3rU-36" style="edgeStyle=orthogonalEdgeStyle;rounded=0;orthogonalLoop=1;jettySize=auto;html=1;" parent="1" source="FiJ3dQUdY0tjjipgx3rU-35" target="FiJ3dQUdY0tjjipgx3rU-25" edge="1">
                    <mxGeometry relative="1" as="geometry"/>
                </mxCell>
                <mxCell id="FiJ3dQUdY0tjjipgx3rU-35" value="soft_stop_script.py" style="ellipse;whiteSpace=wrap;html=1;" parent="1" vertex="1">
                    <mxGeometry x="408.5" y="640" width="180" height="120" as="geometry"/>
                </mxCell>
                <mxCell id="FiJ3dQUdY0tjjipgx3rU-32" value="&lt;div&gt;Upstart:&lt;/div&gt;&lt;div&gt;&lt;div style=&quot;color: rgb(212 , 212 , 212) ; background-color: rgb(30 , 30 , 30) ; font-family: &amp;#34;droid sans mono&amp;#34; , &amp;#34;monospace&amp;#34; , monospace ; font-weight: normal ; font-size: 14px ; line-height: 19px&quot;&gt;&lt;div&gt;&lt;div style=&quot;color: rgb(212 , 212 , 212) ; background-color: rgb(30 , 30 , 30) ; font-family: &amp;#34;droid sans mono&amp;#34; , &amp;#34;monospace&amp;#34; , monospace ; font-weight: normal ; font-size: 14px ; line-height: 19px&quot;&gt;&lt;div&gt;&lt;div&gt;&lt;div style=&quot;color: rgb(212 , 212 , 212) ; background-color: rgb(30 , 30 , 30) ; font-family: &amp;#34;droid sans mono&amp;#34; , &amp;#34;monospace&amp;#34; , monospace ; font-weight: normal ; font-size: 14px ; line-height: 19px&quot;&gt;&lt;div&gt;&lt;div style=&quot;color: rgb(212 , 212 , 212) ; background-color: rgb(30 , 30 , 30) ; font-family: &amp;#34;droid sans mono&amp;#34; , &amp;#34;monospace&amp;#34; , monospace ; font-weight: normal ; font-size: 14px ; line-height: 19px&quot;&gt;&lt;div&gt;&lt;span style=&quot;color: #ce9178&quot;&gt;soft_stop_service.service&lt;/span&gt;&lt;/div&gt;&lt;/div&gt;&lt;/div&gt;&lt;/div&gt;&lt;/div&gt;&lt;/div&gt;&lt;/div&gt;&lt;/div&gt;&lt;/div&gt;&lt;/div&gt;" style="shape=parallelogram;perimeter=parallelogramPerimeter;whiteSpace=wrap;html=1;fixedSize=1;" parent="1" vertex="1">
                    <mxGeometry x="370" y="600" width="260" height="60" as="geometry"/>
                </mxCell>
                <mxCell id="FiJ3dQUdY0tjjipgx3rU-49" value="LEGENDA" style="swimlane;" parent="1" vertex="1">
                    <mxGeometry x="1250" y="100" width="230" height="640" as="geometry"/>
                </mxCell>
                <mxCell id="FiJ3dQUdY0tjjipgx3rU-48" value="node ROSowy" style="rounded=1;whiteSpace=wrap;html=1;" parent="FiJ3dQUdY0tjjipgx3rU-49" vertex="1">
                    <mxGeometry x="42.5" y="60" width="145" height="55" as="geometry"/>
                </mxCell>
                <mxCell id="FiJ3dQUdY0tjjipgx3rU-45" value="skrypt" style="ellipse;whiteSpace=wrap;html=1;" parent="FiJ3dQUdY0tjjipgx3rU-49" vertex="1">
                    <mxGeometry x="25" y="145" width="180" height="80" as="geometry"/>
                </mxCell>
                <mxCell id="FiJ3dQUdY0tjjipgx3rU-51" value="Protokół&lt;br&gt;komunikacji" style="rhombus;whiteSpace=wrap;html=1;" parent="FiJ3dQUdY0tjjipgx3rU-49" vertex="1">
                    <mxGeometry x="65" y="250" width="100" height="100" as="geometry"/>
                </mxCell>
                <mxCell id="FiJ3dQUdY0tjjipgx3rU-54" value="Element&lt;br&gt;Hardware" style="shape=hexagon;perimeter=hexagonPerimeter2;whiteSpace=wrap;html=1;fixedSize=1;" parent="FiJ3dQUdY0tjjipgx3rU-49" vertex="1">
                    <mxGeometry x="55" y="380" width="120" height="80" as="geometry"/>
                </mxCell>
                <mxCell id="FiJ3dQUdY0tjjipgx3rU-61" value="Setwis uruchamiający &lt;br&gt;funkcjonalność na RPI" style="shape=parallelogram;perimeter=parallelogramPerimeter;whiteSpace=wrap;html=1;fixedSize=1;" parent="FiJ3dQUdY0tjjipgx3rU-49" vertex="1">
                    <mxGeometry x="20" y="510" width="190" height="60" as="geometry"/>
                </mxCell>
                <mxCell id="FiJ3dQUdY0tjjipgx3rU-58" style="edgeStyle=orthogonalEdgeStyle;rounded=0;orthogonalLoop=1;jettySize=auto;html=1;entryX=0;entryY=0.5;entryDx=0;entryDy=0;" parent="1" source="FiJ3dQUdY0tjjipgx3rU-52" target="FiJ3dQUdY0tjjipgx3rU-6" edge="1">
                    <mxGeometry relative="1" as="geometry"/>
                </mxCell>
                <mxCell id="FiJ3dQUdY0tjjipgx3rU-52" value="USB" style="rhombus;whiteSpace=wrap;html=1;" parent="1" vertex="1">
                    <mxGeometry x="160" y="440" width="80" height="80" as="geometry"/>
                </mxCell>
                <mxCell id="FiJ3dQUdY0tjjipgx3rU-53" value="Power Board" style="shape=hexagon;perimeter=hexagonPerimeter2;whiteSpace=wrap;html=1;fixedSize=1;" parent="1" vertex="1">
                    <mxGeometry x="800" y="660" width="120" height="80" as="geometry"/>
                </mxCell>
                <mxCell id="FiJ3dQUdY0tjjipgx3rU-56" value="4x Roboteq&lt;br&gt;Motor drivers" style="shape=hexagon;perimeter=hexagonPerimeter2;whiteSpace=wrap;html=1;fixedSize=1;" parent="1" vertex="1">
                    <mxGeometry x="1041.5" y="400" width="120" height="80" as="geometry"/>
                </mxCell>
                <mxCell id="FiJ3dQUdY0tjjipgx3rU-60" style="edgeStyle=orthogonalEdgeStyle;rounded=0;orthogonalLoop=1;jettySize=auto;html=1;" parent="1" source="FiJ3dQUdY0tjjipgx3rU-59" target="FiJ3dQUdY0tjjipgx3rU-52" edge="1">
                    <mxGeometry relative="1" as="geometry"/>
                </mxCell>
                <mxCell id="FiJ3dQUdY0tjjipgx3rU-59" value="IMU" style="shape=hexagon;perimeter=hexagonPerimeter2;whiteSpace=wrap;html=1;fixedSize=1;" parent="1" vertex="1">
                    <mxGeometry x="140" y="330" width="120" height="80" as="geometry"/>
                </mxCell>
                <mxCell id="FiJ3dQUdY0tjjipgx3rU-66" value="eeprom script" style="ellipse;whiteSpace=wrap;html=1;" parent="1" vertex="1">
                    <mxGeometry x="988.5" y="630" width="180" height="120" as="geometry"/>
                </mxCell>
                <mxCell id="FiJ3dQUdY0tjjipgx3rU-67" value="&lt;div&gt;Upstart:&lt;/div&gt;&lt;div&gt;&lt;div style=&quot;color: rgb(212 , 212 , 212) ; background-color: rgb(30 , 30 , 30) ; font-family: &amp;#34;droid sans mono&amp;#34; , &amp;#34;monospace&amp;#34; , monospace ; font-weight: normal ; font-size: 14px ; line-height: 19px&quot;&gt;&lt;div&gt;&lt;div style=&quot;color: rgb(212 , 212 , 212) ; background-color: rgb(30 , 30 , 30) ; font-family: &amp;#34;droid sans mono&amp;#34; , &amp;#34;monospace&amp;#34; , monospace ; font-weight: normal ; font-size: 14px ; line-height: 19px&quot;&gt;&lt;div&gt;&lt;div&gt;&lt;div style=&quot;color: rgb(212 , 212 , 212) ; background-color: rgb(30 , 30 , 30) ; font-family: &amp;#34;droid sans mono&amp;#34; , &amp;#34;monospace&amp;#34; , monospace ; font-weight: normal ; font-size: 14px ; line-height: 19px&quot;&gt;&lt;div&gt;&lt;div style=&quot;color: rgb(212 , 212 , 212) ; background-color: rgb(30 , 30 , 30) ; font-family: &amp;#34;droid sans mono&amp;#34; , &amp;#34;monospace&amp;#34; , monospace ; font-weight: normal ; font-size: 14px ; line-height: 19px&quot;&gt;&lt;div&gt;&lt;span style=&quot;color: #ce9178&quot;&gt;panther_eeprom_config.service&lt;/span&gt;&lt;/div&gt;&lt;/div&gt;&lt;/div&gt;&lt;/div&gt;&lt;/div&gt;&lt;/div&gt;&lt;/div&gt;&lt;/div&gt;&lt;/div&gt;&lt;/div&gt;" style="shape=parallelogram;perimeter=parallelogramPerimeter;whiteSpace=wrap;html=1;fixedSize=1;" parent="1" vertex="1">
                    <mxGeometry x="928.5" y="600" width="300" height="60" as="geometry"/>
                </mxCell>
                <mxCell id="9" value="&lt;div&gt;Upstart:&lt;/div&gt;&lt;div&gt;&lt;div style=&quot;color: rgb(212 , 212 , 212) ; background-color: rgb(30 , 30 , 30) ; font-family: &amp;#34;droid sans mono&amp;#34; , &amp;#34;monospace&amp;#34; , monospace ; font-weight: normal ; font-size: 14px ; line-height: 19px&quot;&gt;roscore.service&lt;/div&gt;&lt;/div&gt;" style="shape=parallelogram;perimeter=parallelogramPerimeter;whiteSpace=wrap;html=1;fixedSize=1;" parent="1" vertex="1">
                    <mxGeometry x="100" y="600" width="240" height="60" as="geometry"/>
                </mxCell>
                <mxCell id="10" value="roscore" style="rounded=1;whiteSpace=wrap;html=1;" parent="1" vertex="1">
                    <mxGeometry x="160" y="650" width="120" height="60" as="geometry"/>
                </mxCell>
            </root>
        </mxGraphModel>
    </diagram>
</mxfile>